<?xml version="1.0" encoding="UTF-8"?><svg id="a" xmlns="http://www.w3.org/2000/svg" xmlns:xlink="http://www.w3.org/1999/xlink" viewBox="0 0 59.87 60.69"><defs><style>.c{fill:#fff;}.d{fill:#740645;}.d,.e,.f,.g{opacity:.51;}.e{fill:#3f0446;}.h{fill:url(#b);}.f{fill:#df274d;}.g{fill:#b90c3a;}.i{fill:#1d1d1b;}</style><linearGradient id="b" x1="-84.43" y1="-246.4" x2="-23.74" y2="-246.4" gradientTransform="translate(84.02 276.75)" gradientUnits="userSpaceOnUse"><stop offset="0" stop-color="#df274d"/><stop offset=".34" stop-color="#b90c3a"/><stop offset=".71" stop-color="#740645"/><stop offset=".76" stop-color="#600545"/><stop offset=".84" stop-color="#4e0445"/><stop offset=".92" stop-color="#420445"/><stop offset="1" stop-color="#3f0446"/></linearGradient></defs><circle class="f" cx="9.88" cy="9.83" r="5.02"/><circle class="e" cx="9.88" cy="49.98" r="5.02"/><circle class="d" cx="23.4" cy="36.66" r="5.02"/><circle class="g" cx="23.4" cy="23.35" r="5.02"/><circle class="f" cx="37.03" cy="9.83" r="5.02"/><circle class="f" cx="23.4" cy="9.83" r="5.02"/><circle class="d" cx="9.88" cy="36.66" r="5.02"/><circle class="g" cx="9.88" cy="23.35" r="5.02"/><circle class="f" cx="50.72" cy="9.83" r="5.02"/><circle class="e" cx="23.4" cy="49.98" r="5.02"/><circle class="e" cx="37.03" cy="49.98" r="5.02"/><circle class="d" cx="37.03" cy="36.66" r="5.02"/><circle class="g" cx="37.03" cy="23.35" r="5.02"/><circle class="g" cx="50.72" cy="23.35" r="5.02"/><circle class="d" cx="50.72" cy="36.66" r="5.02"/><circle class="e" cx="50.72" cy="49.98" r="5.02"/><circle class="i" cx="10.66" cy="9.83" r="5.02"/><circle class="i" cx="10.66" cy="49.98" r="5.02"/><circle class="i" cx="24.18" cy="36.66" r="5.02"/><circle class="i" cx="24.18" cy="23.35" r="5.02"/><circle class="i" cx="37.81" cy="9.83" r="5.02"/><circle class="i" cx="24.18" cy="9.83" r="5.02"/><circle class="i" cx="10.66" cy="36.66" r="5.02"/><circle class="i" cx="10.66" cy="23.35" r="5.02"/><circle class="i" cx="51.49" cy="9.83" r="5.02"/><circle class="i" cx="24.18" cy="49.98" r="5.02"/><circle class="i" cx="37.81" cy="49.98" r="5.02"/><circle class="i" cx="37.81" cy="36.66" r="5.02"/><circle class="i" cx="37.81" cy="23.35" r="5.02"/><circle class="i" cx="51.49" cy="23.35" r="5.02"/><circle class="i" cx="51.49" cy="36.66" r="5.02"/><circle class="i" cx="51.49" cy="49.98" r="5.02"/><rect class="h" x="-.41" y=".41" width="60.69" height="59.87" rx="2.74" ry="2.74" transform="translate(60.28 .41) rotate(90)"/><circle class="c" cx="9.88" cy="9.83" r="5.02"/><circle class="c" cx="9.88" cy="49.98" r="5.02"/><circle class="c" cx="23.4" cy="36.66" r="5.02"/><circle class="c" cx="23.4" cy="23.35" r="5.02"/><circle class="c" cx="37.03" cy="9.83" r="5.02"/><circle class="c" cx="23.4" cy="9.83" r="5.02"/><circle class="c" cx="9.88" cy="36.66" r="5.02"/><circle class="c" cx="9.88" cy="23.35" r="5.02"/><circle class="c" cx="50.72" cy="9.83" r="5.02"/><circle class="c" cx="23.4" cy="49.98" r="5.02"/><circle class="c" cx="37.03" cy="49.98" r="5.02"/><circle class="c" cx="37.03" cy="36.66" r="5.02"/><circle class="c" cx="37.03" cy="23.35" r="5.02"/><circle class="c" cx="50.72" cy="23.35" r="5.02"/><circle class="c" cx="50.72" cy="36.66" r="5.02"/><circle class="c" cx="50.72" cy="49.98" r="5.02"/></svg>