<?xml version="1.0" encoding="UTF-8"?><svg id="a" xmlns="http://www.w3.org/2000/svg" viewBox="0 0 59.87 60.69"><defs><style>.b{fill:#fff;}.c,.d,.e,.f{opacity:.76;}.c,.g{fill:#3f0446;}.d,.h{fill:#b90c3a;}.e,.i{fill:#df274d;}.f,.j{fill:#740645;}</style></defs><rect class="b" x="-.41" y=".41" width="60.69" height="59.87" rx="2.74" ry="2.74" transform="translate(60.28 .41) rotate(90)"/><circle class="i" cx="9.63" cy="9.93" r="5.02"/><circle class="g" cx="9.63" cy="50.07" r="5.02"/><circle class="j" cx="23.15" cy="36.76" r="5.02"/><circle class="h" cx="23.15" cy="23.45" r="5.02"/><circle class="i" cx="36.78" cy="9.93" r="5.02"/><circle class="i" cx="23.15" cy="9.93" r="5.02"/><circle class="j" cx="9.63" cy="36.76" r="5.02"/><circle class="h" cx="9.63" cy="23.45" r="5.02"/><circle class="i" cx="50.47" cy="9.93" r="5.02"/><circle class="g" cx="23.15" cy="50.07" r="5.02"/><circle class="g" cx="36.78" cy="50.07" r="5.02"/><circle class="j" cx="36.78" cy="36.76" r="5.02"/><circle class="h" cx="36.78" cy="23.45" r="5.02"/><circle class="h" cx="50.47" cy="23.45" r="5.02"/><circle class="j" cx="50.47" cy="36.76" r="5.02"/><circle class="g" cx="50.47" cy="50.07" r="5.02"/><rect class="b" x="-.41" y=".41" width="60.69" height="59.87" rx="2.74" ry="2.74" transform="translate(60.28 .41) rotate(90)"/><circle class="e" cx="9.63" cy="9.47" r="5.02"/><circle class="c" cx="9.63" cy="49.62" r="5.02"/><circle class="f" cx="23.15" cy="36.3" r="5.02"/><circle class="d" cx="23.15" cy="22.99" r="5.02"/><circle class="e" cx="36.78" cy="9.47" r="5.02"/><circle class="e" cx="23.15" cy="9.47" r="5.02"/><circle class="f" cx="9.63" cy="36.3" r="5.02"/><circle class="d" cx="9.63" cy="22.99" r="5.02"/><circle class="e" cx="50.47" cy="9.47" r="5.02"/><circle class="c" cx="23.15" cy="49.62" r="5.02"/><circle class="c" cx="36.78" cy="49.62" r="5.02"/><circle class="f" cx="36.78" cy="36.3" r="5.02"/><circle class="d" cx="36.78" cy="22.99" r="5.02"/><circle class="d" cx="50.47" cy="22.99" r="5.02"/><circle class="f" cx="50.47" cy="36.3" r="5.02"/><circle class="c" cx="50.47" cy="49.62" r="5.02"/></svg>