<?xml version="1.0" encoding="UTF-8"?><svg id="a" xmlns="http://www.w3.org/2000/svg" xmlns:xlink="http://www.w3.org/1999/xlink" viewBox="0 0 59.87 60.69"><defs><style>.c{fill:#fff;}.d{fill:url(#b);}</style><linearGradient id="b" x1="29.94" y1="14.05" x2="29.94" y2="46.65" gradientTransform="matrix(1, 0, 0, 1, 0, 0)" gradientUnits="userSpaceOnUse"><stop offset="0" stop-color="#df274d"/><stop offset=".34" stop-color="#b90c3a"/><stop offset=".71" stop-color="#740645"/><stop offset=".76" stop-color="#600545"/><stop offset=".84" stop-color="#4e0445"/><stop offset=".92" stop-color="#420445"/><stop offset="1" stop-color="#3f0446"/></linearGradient></defs><rect class="c" x="-.41" y=".41" width="60.69" height="59.87" rx="2.74" ry="2.74" transform="translate(60.28 .41) rotate(90)"/><path class="d" d="M12.93,27.49s-2.43-7.55,3.35-11.65c2.6-1.84,5.95-2.35,8.88-1.11,1.66,.71,3.44,2.04,4.85,4.5,0,0,4.37-7.29,11.96-4.46,3.64,1.36,4.96,4.33,5.36,7.06,.46,3.14-.28,6.35-1.97,9.04-2.04,3.26-6.34,8.72-15.08,15.77,0,0-13.07-6.99-17.35-19.16"/></svg>