<?xml version="1.0" encoding="UTF-8"?><svg id="a" xmlns="http://www.w3.org/2000/svg" xmlns:xlink="http://www.w3.org/1999/xlink" viewBox="0 0 59.87 60.69"><defs><style>.d{fill:#fff;}.e{fill:url(#c);}.f{fill:url(#b);}</style><linearGradient id="b" x1="29.94" y1="14.94" x2="29.94" y2="42.67" gradientTransform="matrix(1, 0, 0, 1, 0, 0)" gradientUnits="userSpaceOnUse"><stop offset="0" stop-color="#df274d"/><stop offset=".34" stop-color="#b90c3a"/><stop offset=".71" stop-color="#740645"/><stop offset=".76" stop-color="#600545"/><stop offset=".84" stop-color="#4e0445"/><stop offset=".92" stop-color="#420445"/><stop offset="1" stop-color="#3f0446"/></linearGradient><linearGradient id="c" x1="29.94" y1="44.08" x2="29.94" y2="48.83" xlink:href="#b"/></defs><rect class="d" x="-.41" y=".41" width="60.69" height="59.87" rx="2.74" ry="2.74" transform="translate(60.28 .41) rotate(90)"/><g><path class="f" d="M39.44,25.17c.55,4.4,.12,5.41,.49,7.53,.74,4.27,1.32,5.54,3.46,6.85,1.42,.87,1.11,1.95,.74,2.58-.19,.33-.55,.53-.94,.53H16.3c-.07,0-.15-.01-.22-.04-.78-.34-.75-1.07-.53-1.72s.73-1.14,1.36-1.4c3.14-1.29,3.36-8.45,3.29-11.73-.04-1.92,.34-3.83,1.18-5.56,2.58-5.3,7.19-4.89,7.19-4.89-.17-.8-.02-1.42,.2-1.75,.68-1.06,1.97-.6,2.39-.02,.45,.63,.33,1.77,.33,1.77,0,0,2.57,.11,4.51,1.7s3.26,4.66,3.44,6.13Z"/><path class="e" d="M25.93,44.08h8.13c.48,0,.85,.46,.71,.93-.22,.75-.67,1.81-1.61,2.61-1.61,1.37-4.95,2.11-7.13-.69-.36-.46-.72-1.05-.93-1.71-.17-.56,.24-1.13,.83-1.13Z"/></g></svg>