<?xml version="1.0" encoding="UTF-8"?><svg id="a" xmlns="http://www.w3.org/2000/svg" xmlns:xlink="http://www.w3.org/1999/xlink" viewBox="0 0 59.87 60.69"><defs><style>.d{fill:#fff;}.e{stroke:url(#b);}.e,.f{fill:none;stroke-miterlimit:10;}.f{stroke:url(#c);}</style><linearGradient id="b" x1="29.94" y1="11.45" x2="29.94" y2="49.25" gradientTransform="matrix(1, 0, 0, 1, 0, 0)" gradientUnits="userSpaceOnUse"><stop offset="0" stop-color="#df274d"/><stop offset=".34" stop-color="#b90c3a"/><stop offset=".71" stop-color="#740645"/><stop offset=".76" stop-color="#600545"/><stop offset=".84" stop-color="#4e0445"/><stop offset=".92" stop-color="#420445"/><stop offset="1" stop-color="#3f0446"/></linearGradient><linearGradient id="c" x1="23.36" y1="30.24" x2="36.38" y2="30.24" xlink:href="#b"/></defs><rect class="d" x="-.41" y=".41" width="60.69" height="59.87" rx="2.74" ry="2.74" transform="translate(60.28 .41) rotate(90)"/><g><path class="e" d="M25.63,11.95h8.52c.39,0,.7,.32,.7,.7v4.34c0,.3,.19,.57,.47,.66h0c.25,.09,.54,.03,.73-.16l3.05-3.02c.27-.27,.71-.27,.99,0l5.47,5.36c.28,.28,.28,.73,0,1l-3.07,3.04c-.19,.19-.26,.48-.17,.74l.13,.35c.1,.28,.37,.47,.66,.47h4.48c.39,0,.7,.32,.7,.7v8.44c0,.39-.32,.7-.7,.7h-4.42c-.28,0-.54,.17-.65,.43l-.03,.06c-.11,.27-.05,.58,.15,.78l2.93,2.89c.28,.27,.28,.72,0,1l-5.6,5.64c-.28,.28-.73,.28-1.01,0l-2.94-3.04c-.2-.21-.51-.27-.78-.16l-.18,.07c-.27,.11-.44,.38-.43,.67l.1,4.42c0,.4-.31,.73-.71,.72l-8.42-.11c-.39,0-.69-.32-.69-.7v-4.12c0-.24-.12-.46-.31-.59l-.26-.17c-.28-.19-.66-.15-.9,.1l-2.95,3.05c-.27,.28-.73,.29-1.01,0l-5.51-5.59c-.28-.28-.27-.73,.01-1l3.1-2.99c.2-.2,.27-.5,.17-.76l-.14-.36c-.11-.27-.37-.45-.66-.45h-4.18c-.39,0-.7-.32-.7-.7v-8.29c0-.39,.32-.71,.72-.7l4.03,.07c.24,0,.47-.12,.61-.32l.19-.29c.18-.28,.14-.65-.1-.89l-3.11-3c-.28-.27-.29-.73,0-1l5.6-5.6c.28-.28,.72-.28,1,0l3.17,3.17c.2,.2,.49,.26,.75,.16l.05-.02c.27-.1,.45-.37,.45-.66v-4.31c0-.39,.32-.7,.7-.7Z"/><circle class="f" cx="29.87" cy="30.24" r="6.01"/></g></svg>