<?xml version="1.0" encoding="UTF-8"?><svg id="a" xmlns="http://www.w3.org/2000/svg" xmlns:xlink="http://www.w3.org/1999/xlink" viewBox="0 0 60.69 59.87"><defs><style>.c{fill:url(#b);}.d{fill:#1d1d1b;}</style><linearGradient id="b" x1="30.35" y1="11.73" x2="30.35" y2="48.15" gradientTransform="matrix(1, 0, 0, 1, 0, 0)" gradientUnits="userSpaceOnUse"><stop offset="0" stop-color="#df274d"/><stop offset=".34" stop-color="#b90c3a"/><stop offset=".71" stop-color="#740645"/><stop offset=".76" stop-color="#600545"/><stop offset=".84" stop-color="#4e0445"/><stop offset=".92" stop-color="#420445"/><stop offset="1" stop-color="#3f0446"/></linearGradient></defs><rect class="d" width="60.69" height="59.87" rx="11.71" ry="11.71"/><path class="c" d="M27.47,48.15l-.14-13.09h-4.49v-5.25h4.67s-1.96-10.9,6.11-11.13c0,0,1.12-.19,4.75,.31v4.56l-2.44-.02c-1.54,.13-2.5,.67-2.76,2.19-.02,.1-.08,1-.09,1.1-.1,1.39,0,3.05,0,3.05l5.2-.07-.76,5.31h-4.44v13.03s10.51-1.33,14.66-12.31-4.97-20.4-8.91-22.17c-3.94-1.76-15.95-5.18-23.2,5.49-7.25,10.67-1.66,18.75-1.66,18.75,0,0,3.28,8.25,13.5,10.24Z"/></svg>