<?xml version="1.0" encoding="UTF-8"?><svg id="a" xmlns="http://www.w3.org/2000/svg" xmlns:xlink="http://www.w3.org/1999/xlink" viewBox="0 0 59.87 60.69"><defs><style>.c{fill:url(#b);}.d{fill:#1d1d1b;}</style><linearGradient id="b" x1="-84.43" y1="-246.4" x2="-23.74" y2="-246.4" gradientTransform="translate(84.02 276.75)" gradientUnits="userSpaceOnUse"><stop offset="0" stop-color="#df274d"/><stop offset=".34" stop-color="#b90c3a"/><stop offset=".71" stop-color="#740645"/><stop offset=".76" stop-color="#600545"/><stop offset=".84" stop-color="#4e0445"/><stop offset=".92" stop-color="#420445"/><stop offset="1" stop-color="#3f0446"/></linearGradient></defs><rect class="d" x="-.41" y=".41" width="60.69" height="59.87" rx="2.74" ry="2.74" transform="translate(60.28 .41) rotate(90)"/><g><rect class="c" x="-.41" y=".41" width="60.69" height="59.87" rx="4.49" ry="4.49" transform="translate(60.28 .41) rotate(90)"/><circle class="d" cx="10.29" cy="10.27" r="5.02"/><circle class="d" cx="10.29" cy="50.42" r="5.02"/><circle class="d" cx="23.82" cy="37.11" r="5.02"/><circle class="d" cx="23.82" cy="23.8" r="5.02"/><circle class="d" cx="37.44" cy="10.27" r="5.02"/><circle class="d" cx="23.82" cy="10.27" r="5.02"/><circle class="d" cx="10.29" cy="37.11" r="5.02"/><circle class="d" cx="10.29" cy="23.8" r="5.02"/><circle class="d" cx="51.13" cy="10.27" r="5.02"/><circle class="d" cx="23.82" cy="50.42" r="5.02"/><circle class="d" cx="37.44" cy="50.42" r="5.02"/><circle class="d" cx="37.44" cy="37.11" r="5.02"/><circle class="d" cx="37.44" cy="23.8" r="5.02"/><circle class="d" cx="51.13" cy="23.8" r="5.02"/><circle class="d" cx="51.13" cy="37.11" r="5.02"/><circle class="d" cx="51.13" cy="50.42" r="5.02"/></g></svg>