<?xml version="1.0" encoding="UTF-8"?><svg id="a" xmlns="http://www.w3.org/2000/svg" xmlns:xlink="http://www.w3.org/1999/xlink" viewBox="0 0 60.69 59.87"><defs><style>.k{stroke:url(#h);}.k,.l,.m,.n,.o,.p,.q,.r,.s{fill:none;stroke-miterlimit:10;}.k,.l,.m,.o,.p,.q,.r,.s{stroke-width:.75px;}.l{stroke:url(#f);}.m{stroke:url(#g);}.n{stroke:url(#j);}.o{stroke:url(#i);}.p{stroke:url(#c);}.q{stroke:url(#b);}.r{stroke:url(#e);}.s{stroke:url(#d);}.t{fill:#1d1d1b;}</style><linearGradient id="b" x1="30.12" y1="19.22" x2="30.12" y2="40.65" gradientTransform="matrix(1, 0, 0, 1, 0, 0)" gradientUnits="userSpaceOnUse"><stop offset="0" stop-color="#df274d"/><stop offset=".34" stop-color="#b90c3a"/><stop offset=".71" stop-color="#740645"/><stop offset=".76" stop-color="#600545"/><stop offset=".84" stop-color="#4e0445"/><stop offset=".92" stop-color="#420445"/><stop offset="1" stop-color="#3f0446"/></linearGradient><linearGradient id="c" x1="21.56" y1="19.37" x2="13.91" y2="14.95" gradientTransform="translate(-6.94 17.57) rotate(-45)" xlink:href="#b"/><linearGradient id="d" x1="27.61" y1="15.62" x2="32.8" y2="10.43" gradientTransform="translate(17.18 43.23) rotate(-90)" xlink:href="#b"/><linearGradient id="e" x1="40.75" y1="38.56" x2="45.17" y2="46.21" gradientTransform="translate(-17.39 42.79) rotate(-45)" xlink:href="#b"/><linearGradient id="f" x1="39.04" y1="17.16" x2="46.09" y2="17.16" gradientTransform="translate(27.65 -26.24) rotate(49.07)" xlink:href="#b"/><linearGradient id="g" x1="18.11" y1="29.84" x2="9.09" y2="29.84" xlink:href="#b"/><linearGradient id="h" x1="42.58" y1="29.94" x2="51.61" y2="29.94" xlink:href="#b"/><linearGradient id="i" x1="20.82" y1="42.65" x2="13.78" y2="42.65" gradientTransform="translate(38.19 1.64) rotate(49.07)" xlink:href="#b"/><linearGradient id="j" x1="30.05" y1="42.21" x2="30.05" y2="51.49" gradientTransform="translate(-16.8 76.9) rotate(-90)" xlink:href="#b"/></defs><rect class="t" width="60.69" height="59.87" rx="11.71" ry="11.71"/><circle class="q" cx="30.12" cy="29.94" r="10.34"/><rect class="p" x="13.6" y="15.89" width="8.27" height="2.55" rx="1.27" ry="1.27" transform="translate(17.33 -7.51) rotate(45)"/><rect class="s" x="26.07" y="11.75" width="8.27" height="2.55" rx="1.27" ry="1.27" transform="translate(43.23 -17.18) rotate(90)"/><rect class="r" x="38.82" y="41.11" width="8.27" height="2.55" rx="1.27" ry="1.27" transform="translate(42.55 -17.96) rotate(45)"/><rect class="l" x="38.43" y="15.89" width="8.27" height="2.55" rx="1.27" ry="1.27" transform="translate(1.71 38.08) rotate(-49.07)"/><rect class="m" x="9.46" y="28.56" width="8.27" height="2.55" rx="1.27" ry="1.27"/><rect class="k" x="42.96" y="28.66" width="8.27" height="2.55" rx="1.27" ry="1.27"/><rect class="o" x="13.16" y="41.37" width="8.27" height="2.55" rx="1.27" ry="1.27" transform="translate(-26.26 27.78) rotate(-49.07)"/><rect class="n" x="25.92" y="45.58" width="8.27" height="2.55" rx="1.27" ry="1.27" transform="translate(76.9 16.8) rotate(90)"/></svg>