<?xml version="1.0" encoding="UTF-8"?><svg id="a" xmlns="http://www.w3.org/2000/svg" xmlns:xlink="http://www.w3.org/1999/xlink" viewBox="0 0 60.69 59.87"><defs><style>.k{fill:url(#c);}.l{fill:url(#f);}.m{fill:url(#g);}.n{fill:url(#b);}.o{fill:url(#i);}.p{fill:url(#h);}.q{fill:url(#d);}.r{fill:url(#e);}.s{fill:url(#j);}.t{fill:#1d1d1b;}</style><linearGradient id="b" x1="29.83" y1="19.59" x2="29.83" y2="40.28" gradientTransform="matrix(1, 0, 0, 1, 0, 0)" gradientUnits="userSpaceOnUse"><stop offset="0" stop-color="#df274d"/><stop offset=".34" stop-color="#b90c3a"/><stop offset=".71" stop-color="#740645"/><stop offset=".76" stop-color="#600545"/><stop offset=".84" stop-color="#4e0445"/><stop offset=".92" stop-color="#420445"/><stop offset="1" stop-color="#3f0446"/></linearGradient><linearGradient id="c" x1="-21.17" y1="-6.65" x2="-32.3" y2="-8.79" gradientTransform="translate(36.66 24.88) scale(.72 1)" xlink:href="#b"/><linearGradient id="d" x1="52.5" y1="45.67" x2="40.99" y2="45.67" gradientTransform="translate(-3.69 -32.65) scale(.72 1)" xlink:href="#b"/><linearGradient id="e" x1="18.94" y1="-10.55" x2="26.82" y2="-4.89" gradientTransform="translate(26.21 50.11) scale(.72 1)" xlink:href="#b"/><linearGradient id="f" x1="101.39" y1="-134.26" x2="112.7" y2="-135.83" gradientTransform="translate(-34.69 152.21) scale(.72 1)" xlink:href="#b"/><linearGradient id="g" x1="190.75" y1="-1.64" x2="182.87" y2="-7.3" gradientTransform="translate(-121 34.31) scale(.72 1)" xlink:href="#b"/><linearGradient id="h" x1="229.46" y1="-7.2" x2="237.34" y2="-1.54" gradientTransform="translate(-121 34.31) scale(.72 1)" xlink:href="#b"/><linearGradient id="i" x1="88.04" y1="45.82" x2="99.55" y2="45.82" gradientTransform="translate(-37.67 1.03) scale(.72 1)" xlink:href="#b"/><linearGradient id="j" x1="62.35" y1="-134.85" x2="55.19" y2="-140.79" gradientTransform="translate(-24.81 179.38) scale(.72 1)" xlink:href="#b"/></defs><rect class="t" width="60.69" height="59.87" rx="11.71" ry="11.71"/><g><circle class="n" cx="29.83" cy="29.94" r="10.34"/><rect class="k" x="13.31" y="15.89" width="8.27" height="2.55" rx="1.27" ry="1.27" transform="translate(17.24 -7.31) rotate(45)"/><rect class="q" x="25.78" y="11.75" width="8.27" height="2.55" rx="1.27" ry="1.27" transform="translate(42.94 -16.89) rotate(90)"/><rect class="r" x="38.53" y="41.11" width="8.27" height="2.55" rx="1.27" ry="1.27" transform="translate(42.47 -17.76) rotate(45)"/><rect class="l" x="38.14" y="15.89" width="8.27" height="2.55" rx="1.27" ry="1.27" transform="translate(1.61 37.86) rotate(-49.07)"/><rect class="m" x="9.17" y="28.56" width="8.27" height="2.55" rx="1.27" ry="1.27"/><rect class="p" x="42.67" y="28.66" width="8.27" height="2.55" rx="1.27" ry="1.27"/><rect class="o" x="25.62" y="45.58" width="8.27" height="2.55" rx="1.27" ry="1.27" transform="translate(76.61 17.09) rotate(90)"/><rect class="s" x="13.31" y="40.29" width="8.27" height="2.55" rx="1.27" ry="1.27" transform="translate(-25.39 27.51) rotate(-49.07)"/></g></svg>