<?xml version="1.0" encoding="UTF-8"?><svg id="a" xmlns="http://www.w3.org/2000/svg" xmlns:xlink="http://www.w3.org/1999/xlink" viewBox="0 0 60.69 59.87"><defs><style>.k{opacity:.51;}.l{fill:url(#c);}.m{fill:url(#f);}.n{fill:url(#g);}.o{fill:url(#b);}.p{fill:url(#i);}.q{fill:url(#h);}.r{fill:url(#d);}.s{fill:url(#e);}.t{fill:url(#j);}.u{fill:#1d1d1b;}</style><linearGradient id="b" x1="31.1" y1="19.59" x2="31.1" y2="40.28" gradientTransform="matrix(1, 0, 0, 1, 0, 0)" gradientUnits="userSpaceOnUse"><stop offset="0" stop-color="#df274d"/><stop offset=".34" stop-color="#b90c3a"/><stop offset=".71" stop-color="#740645"/><stop offset=".76" stop-color="#600545"/><stop offset=".84" stop-color="#4e0445"/><stop offset=".92" stop-color="#420445"/><stop offset="1" stop-color="#3f0446"/></linearGradient><linearGradient id="c" x1="36.85" y1="-132.07" x2="25.72" y2="-134.22" gradientTransform="translate(-3.78 150.31) scale(.72 1)" xlink:href="#b"/><linearGradient id="d" x1="-14.85" y1="-167" x2="-26.36" y2="-167" gradientTransform="translate(46 180.02) scale(.72 1)" xlink:href="#b"/><linearGradient id="e" x1="76.97" y1="-135.98" x2="84.84" y2="-130.31" gradientTransform="translate(-14.23 175.53) scale(.72 1)" xlink:href="#b"/><linearGradient id="f" x1="25.83" y1="-39.88" x2="37.14" y2="-41.45" gradientTransform="translate(20.91 57.83) scale(.72 1)" xlink:href="#b"/><linearGradient id="g" x1="251.61" y1="-1.64" x2="243.73" y2="-7.3" gradientTransform="translate(-163.48 34.31) scale(.72 1)" xlink:href="#b"/><linearGradient id="h" x1="290.32" y1="-7.2" x2="298.2" y2="-1.54" gradientTransform="translate(-163.48 34.31) scale(.72 1)" xlink:href="#b"/><linearGradient id="i" x1="20.69" y1="-166.85" x2="32.2" y2="-166.85" gradientTransform="translate(12.02 213.69) scale(.72 1)" xlink:href="#b"/><linearGradient id="j" x1="-13.21" y1="-40.47" x2="-20.37" y2="-46.41" gradientTransform="translate(30.79 85) scale(.72 1)" xlink:href="#b"/></defs><rect class="u" y="0" width="60.69" height="59.87" rx="11.71" ry="11.71"/><g class="k"><circle class="o" cx="31.1" cy="29.94" r="10.34"/><rect class="l" x="14.58" y="15.89" width="8.27" height="2.55" rx="1.27" ry="1.27" transform="translate(17.62 -8.21) rotate(45)"/><rect class="r" x="27.05" y="11.75" width="8.27" height="2.55" rx="1.27" ry="1.27" transform="translate(44.21 -18.16) rotate(90)"/><rect class="s" x="39.8" y="41.11" width="8.27" height="2.55" rx="1.27" ry="1.27" transform="translate(42.84 -18.66) rotate(45)"/><rect class="m" x="39.41" y="15.89" width="8.27" height="2.55" rx="1.27" ry="1.27" transform="translate(2.05 38.82) rotate(-49.07)"/><rect class="n" x="10.44" y="28.56" width="8.27" height="2.55" rx="1.27" ry="1.27"/><rect class="q" x="43.94" y="28.66" width="8.27" height="2.55" rx="1.27" ry="1.27"/><rect class="p" x="26.9" y="45.58" width="8.27" height="2.55" rx="1.27" ry="1.27" transform="translate(77.88 15.82) rotate(90)"/><rect class="t" x="14.58" y="40.29" width="8.27" height="2.55" rx="1.27" ry="1.27" transform="translate(-24.95 28.47) rotate(-49.07)"/></g></svg>