<?xml version="1.0" encoding="UTF-8"?><svg id="a" xmlns="http://www.w3.org/2000/svg" xmlns:xlink="http://www.w3.org/1999/xlink" viewBox="0 0 59.87 60.69"><defs><style>.e{stroke:url(#b);}.e,.f{fill:none;opacity:.51;stroke-miterlimit:10;}.f{stroke:url(#d);}.g{fill:#fff;font-family:NotoMono, Noto Mono;font-size:6.1px;}.h{fill:url(#c);opacity:.54;}.i{fill:#1d1d1b;}</style><linearGradient id="b" x1="29.6" y1="12.9" x2="29.6" y2="41.63" gradientTransform="matrix(1, 0, 0, 1, 0, 0)" gradientUnits="userSpaceOnUse"><stop offset="0" stop-color="#df274d"/><stop offset=".34" stop-color="#b90c3a"/><stop offset=".71" stop-color="#740645"/><stop offset=".76" stop-color="#600545"/><stop offset=".84" stop-color="#4e0445"/><stop offset=".92" stop-color="#420445"/><stop offset="1" stop-color="#3f0446"/></linearGradient><linearGradient id="c" x1="38.5" y1="17.26" x2="38.5" y2="29.84" xlink:href="#b"/><linearGradient id="d" x1="29.32" y1="42.04" x2="29.32" y2="47.79" xlink:href="#b"/></defs><rect class="i" x="-.41" y=".41" width="60.69" height="59.87" rx="2.74" ry="2.74" transform="translate(60.28 .41) rotate(90)"/><g><path class="e" d="M15.96,41.13h26.9c.38,0,.74-.2,.94-.53,.37-.63,.68-1.71-.74-2.58-2.15-1.32-2.84-2.56-3.46-6.85,0,0-5.26,.35-7.36-2.91-1-1.55-2-3.61-1.21-6.9,.36-1.5,1.68-3.3,3.58-4.44,0,0-.83-.92-3.46-1.12,0,0,.13-1.14-.33-1.77-.42-.58-1.7-1.04-2.39,.02-.21,.33-.37,.96-.2,1.75,0,0-4.61-.41-7.19,4.89-.84,1.73-1.22,3.64-1.18,5.56,.07,3.28-.16,10.43-3.29,11.73-.63,.26-1.14,.75-1.36,1.4s-.25,1.38,.53,1.72c.07,.03,.14,.04,.22,.04Z"/><circle class="h" cx="38.5" cy="23.55" r="6.29"/><text class="g" transform="translate(36.67 25.64)"><tspan x="0" y="0">1</tspan></text><path class="f" d="M25.31,42.54h8.13c.48,0,.85,.46,.71,.93-.22,.75-.67,1.81-1.61,2.61-1.61,1.37-4.95,2.11-7.13-.69-.36-.46-.72-1.05-.93-1.71-.17-.56,.24-1.13,.83-1.13Z"/></g></svg>