<?xml version="1.0" encoding="UTF-8"?><svg id="a" xmlns="http://www.w3.org/2000/svg" xmlns:xlink="http://www.w3.org/1999/xlink" viewBox="0 0 60.69 59.87"><defs><style>.c{fill:url(#b);opacity:.51;}.d{fill:#1d1d1b;}</style><linearGradient id="b" x1="30.35" y1="11.73" x2="30.35" y2="48.14" gradientTransform="matrix(1, 0, 0, 1, 0, 0)" gradientUnits="userSpaceOnUse"><stop offset="0" stop-color="#df274d"/><stop offset=".34" stop-color="#b90c3a"/><stop offset=".71" stop-color="#740645"/><stop offset=".76" stop-color="#600545"/><stop offset=".84" stop-color="#4e0445"/><stop offset=".92" stop-color="#420445"/><stop offset="1" stop-color="#3f0446"/></linearGradient></defs><rect class="d" width="60.69" height="59.87" rx="11.71" ry="11.71"/><g><ellipse class="c" cx="30.35" cy="29.94" rx="18.09" ry="18.2"/><path class="d" d="M37.64,25.51s.48,6.61-3.72,10.11c-4.21,3.5-7.99,4.05-12.91,1.09,0,0,2.05,.32,5.33-1.99,0,0-2.79-.03-3.72-3.05,0,0,1.28,.48,2.34,0,0,0-3.4-.51-3.72-4.27,0,0,.58,.58,2.15,.51,0,0-3.53-2.09-1.54-5.84,0,0,2.44,4.4,8.32,4.33,0,0-1.28-3.05,2.05-4.78,0,0,2.44-1.32,4.53,1,0,0,1.96-.61,2.31-1,0,0-.13,1.54-1.61,2.22,0,0,.9,.22,2.25-.58,0,0-.58,1.77-2.05,2.25Z"/></g></svg>